<svg width="96" height="96" viewBox="0 0 96 96" fill="none" xmlns="http://www.w3.org/2000/svg" role="img" aria-label="NeerCred icon">
  <defs>
    <linearGradient id="i-blue" x1="12" y1="12" x2="72" y2="72" gradientUnits="userSpaceOnUse">
      <stop stop-color="#7DD3FC"/><stop offset="0.5" stop-color="#3B82F6"/><stop offset="1" stop-color="#1E40AF"/>
    </linearGradient>
    <linearGradient id="i-gold" x1="48" y1="16" x2="80" y2="72" gradientUnits="userSpaceOnUse">
      <stop stop-color="#FEF9C3"/><stop offset="0.4" stop-color="#F5D76E"/><stop offset="1" stop-color="#B45309"/>
    </linearGradient>
    <linearGradient id="i-ring-b" x1="8" y1="48" x2="48" y2="48" gradientUnits="userSpaceOnUse">
      <stop stop-color="#38BDF8"/><stop offset="1" stop-color="#1D4ED8"/>
    </linearGradient>
    <linearGradient id="i-ring-g" x1="48" y1="48" x2="88" y2="48" gradientUnits="userSpaceOnUse">
      <stop stop-color="#FDE68A"/><stop offset="1" stop-color="#CA8A04"/>
    </linearGradient>
    <linearGradient id="i-shine" x1="0" y1="0" x2="0" y2="1">
      <stop offset="0" stop-color="#FFFFFF" stop-opacity="0.55"/><stop offset="1" stop-color="#FFFFFF" stop-opacity="0"/>
    </linearGradient>
  </defs>
  <path d="M48 14 A34 34 0 0 0 48 82" stroke="url(#i-ring-b)" stroke-width="3.2" fill="none" stroke-linecap="round"/>
  <path d="M48 14 A34 34 0 0 1 48 82" stroke="url(#i-ring-g)" stroke-width="3.2" fill="none" stroke-linecap="round"/>
  <path d="M34 30 L34 66" stroke="url(#i-blue)" stroke-width="8" stroke-linecap="round"/>
  <path d="M34 30 L62 66" stroke="url(#i-blue)" stroke-width="8" stroke-linecap="round"/>
  <path d="M62 30 L62 66" stroke="url(#i-gold)" stroke-width="8" stroke-linecap="round"/>
  <path d="M48 9.5 L50 14.5 L55 14.5 L51 17.5 L52.5 22.5 L48 19.5 L43.5 22.5 L45 17.5 L41 14.5 L46 14.5 Z" fill="url(#i-gold)"/>
  <ellipse cx="44" cy="38" rx="14" ry="20" fill="url(#i-shine)" opacity="0.28"/>
</svg>
