<svg width="300" height="220" viewBox="0 0 300 220" fill="none" xmlns="http://www.w3.org/2000/svg" role="img" aria-label="NeerCred">
  <defs>
    <linearGradient id="s-blue" x1="108" y1="24" x2="192" y2="108" gradientUnits="userSpaceOnUse">
      <stop stop-color="#BAE6FD"/><stop offset="0.35" stop-color="#3B82F6"/><stop offset="1" stop-color="#1E3A8A"/>
    </linearGradient>
    <linearGradient id="s-gold" x1="138" y1="28" x2="178" y2="104" gradientUnits="userSpaceOnUse">
      <stop stop-color="#FFF8E1"/><stop offset="0.25" stop-color="#F5D76E"/><stop offset="1" stop-color="#92600A"/>
    </linearGradient>
    <linearGradient id="s-ring-b" x1="104" y1="66" x2="144" y2="66" gradientUnits="userSpaceOnUse">
      <stop stop-color="#7DD3FC"/><stop offset="1" stop-color="#1D4ED8"/>
    </linearGradient>
    <linearGradient id="s-ring-g" x1="144" y1="66" x2="184" y2="66" gradientUnits="userSpaceOnUse">
      <stop stop-color="#FDE68A"/><stop offset="1" stop-color="#A16207"/>
    </linearGradient>
    <linearGradient id="s-cred" x1="40" y1="0" x2="260" y2="0" gradientUnits="userSpaceOnUse">
      <stop stop-color="#0D5C56"/><stop offset="0.5" stop-color="#0F766E"/><stop offset="1" stop-color="#2DD4BF"/>
    </linearGradient>
    <linearGradient id="s-gold-text" x1="40" y1="188" x2="260" y2="188" gradientUnits="userSpaceOnUse">
      <stop stop-color="#FEF3C7"/><stop offset="0.3" stop-color="#E8C547"/><stop offset="0.7" stop-color="#D4A017"/><stop offset="1" stop-color="#B8860B"/>
    </linearGradient>
    <filter id="s-depth" x="-10%" y="-10%" width="120%" height="120%">
      <feDropShadow dx="0" dy="2" stdDeviation="1.5" flood-color="#0B1220" flood-opacity="0.15"/>
    </filter>
  </defs>
  <g filter="url(#s-depth)" transform="translate(102, 12)">
    <path d="M48 14 A34 34 0 0 0 48 82" stroke="url(#s-ring-b)" stroke-width="3.2" fill="none" stroke-linecap="round"/>
    <path d="M48 14 A34 34 0 0 1 48 82" stroke="url(#s-ring-g)" stroke-width="3.2" fill="none" stroke-linecap="round"/>
    <path d="M34 30 L34 66" stroke="url(#s-blue)" stroke-width="7.5" stroke-linecap="round"/>
    <path d="M34 30 L62 66" stroke="url(#s-blue)" stroke-width="7.5" stroke-linecap="round"/>
    <path d="M62 30 L62 66" stroke="url(#s-gold)" stroke-width="7.5" stroke-linecap="round"/>
    <path d="M48 9.5 L50.2 14.5 L55.5 14.5 L51.2 18 L52.8 23 L48 20 L43.2 23 L44.8 18 L40.5 14.5 L45.8 14.5 Z" fill="url(#s-gold)"/>
  </g>
  <text x="150" y="148" text-anchor="middle" font-family="Poppins, system-ui, sans-serif" font-size="48" font-weight="800" letter-spacing="-0.5">
    <tspan fill="#0B1220">Neer</tspan><tspan fill="url(#s-cred)">Cred</tspan>
  </text>
  <text x="150" y="176" text-anchor="middle" font-family="Poppins, system-ui, sans-serif" font-size="11.5" font-weight="600" fill="url(#s-gold-text)" letter-spacing="5">DREAM BIG · BORROW SMART</text>
  <line x1="72" y1="192" x2="112" y2="192" stroke="#D4A017" stroke-width="0.8" opacity="0.55"/>
  <line x1="188" y1="192" x2="228" y2="192" stroke="#D4A017" stroke-width="0.8" opacity="0.55"/>
</svg>
