<svg width="248" height="84" viewBox="0 0 248 84" fill="none" xmlns="http://www.w3.org/2000/svg" role="img" aria-label="NeerCred — Dream Big. Borrow Smart.">
  <defs>
    <linearGradient id="hdr-blue" x1="8" y1="8" x2="36" y2="52" gradientUnits="userSpaceOnUse">
      <stop stop-color="#22D3EE"/>
      <stop offset="0.55" stop-color="#3B82F6"/>
      <stop offset="1" stop-color="#1E3A8A"/>
    </linearGradient>
    <linearGradient id="hdr-gold" x1="42" y1="12" x2="52" y2="50" gradientUnits="userSpaceOnUse">
      <stop stop-color="#FDE68A"/>
      <stop offset="0.45" stop-color="#E8C547"/>
      <stop offset="1" stop-color="#B8860B"/>
    </linearGradient>
    <linearGradient id="hdr-ring-blue" x1="6" y1="32" x2="32" y2="32" gradientUnits="userSpaceOnUse">
      <stop stop-color="#38BDF8"/>
      <stop offset="1" stop-color="#1D4ED8"/>
    </linearGradient>
    <linearGradient id="hdr-ring-gold" x1="32" y1="32" x2="58" y2="32" gradientUnits="userSpaceOnUse">
      <stop stop-color="#F5D76E"/>
      <stop offset="1" stop-color="#C9A227"/>
    </linearGradient>
    <linearGradient id="hdr-cred" x1="68" y1="0" x2="180" y2="0" gradientUnits="userSpaceOnUse">
      <stop stop-color="#0F766E"/>
      <stop offset="1" stop-color="#14B8A6"/>
    </linearGradient>
  </defs>
  <g transform="translate(4, 10) scale(0.62)">
    <path d="M48 14 A34 34 0 0 0 48 82" stroke="url(#hdr-ring-blue)" stroke-width="2.8" fill="none" stroke-linecap="round"/>
    <path d="M48 14 A34 34 0 0 1 48 82" stroke="url(#hdr-ring-gold)" stroke-width="2.8" fill="none" stroke-linecap="round"/>
    <path d="M34 30 L34 66" stroke="url(#hdr-blue)" stroke-width="7.5" stroke-linecap="round"/>
    <path d="M34 30 L62 66" stroke="url(#hdr-blue)" stroke-width="7.5" stroke-linecap="round"/>
    <path d="M62 30 L62 66" stroke="url(#hdr-gold)" stroke-width="7.5" stroke-linecap="round"/>
    <path d="M48 9.5 L49.8 13.8 L54.4 13.8 L50.8 16.6 L52.2 21 L48 18.4 L43.8 21 L45.2 16.6 L41.6 13.8 L46.2 13.8 Z" fill="url(#hdr-gold)"/>
  </g>
  <text x="66" y="38" font-family="Poppins, system-ui, sans-serif" font-size="28" font-weight="700" letter-spacing="-0.3" dominant-baseline="middle">
    <tspan fill="#0B1220">Neer</tspan><tspan fill="url(#hdr-cred)">Cred</tspan><tspan fill="#475569" font-size="12" font-weight="700" dx="4" dy="-8">TM</tspan>
  </text>
  <text x="66" y="58" font-family="Poppins, system-ui, sans-serif" font-size="8" font-weight="600" fill="#64748B" letter-spacing="2.8">DREAM BIG. BORROW SMART.</text>
</svg>
