<svg width="210" height="72" viewBox="0 0 210 72" fill="none" xmlns="http://www.w3.org/2000/svg" role="img" aria-label="NeerCred">
  <defs>
    <linearGradient id="ll-blue" x1="8" y1="8" x2="36" y2="44" gradientUnits="userSpaceOnUse">
      <stop stop-color="#22D3EE"/><stop offset="0.55" stop-color="#3B82F6"/><stop offset="1" stop-color="#1E3A8A"/>
    </linearGradient>
    <linearGradient id="ll-gold" x1="42" y1="10" x2="52" y2="42" gradientUnits="userSpaceOnUse">
      <stop stop-color="#FDE68A"/><stop offset="0.45" stop-color="#E8C547"/><stop offset="1" stop-color="#B8860B"/>
    </linearGradient>
    <linearGradient id="ll-ring-blue" x1="6" y1="26" x2="32" y2="26" gradientUnits="userSpaceOnUse">
      <stop stop-color="#38BDF8"/><stop offset="1" stop-color="#1D4ED8"/>
    </linearGradient>
    <linearGradient id="ll-ring-gold" x1="32" y1="26" x2="58" y2="26" gradientUnits="userSpaceOnUse">
      <stop stop-color="#F5D76E"/><stop offset="1" stop-color="#C9A227"/>
    </linearGradient>
    <linearGradient id="ll-cred" x1="68" y1="0" x2="180" y2="0" gradientUnits="userSpaceOnUse">
      <stop stop-color="#0F766E"/><stop offset="1" stop-color="#14B8A6"/>
    </linearGradient>
  </defs>
  <!-- Full N icon — scale chosen so ring + star fit inside viewBox -->
  <g transform="translate(6, 10) scale(0.58)">
    <path d="M48 14 A34 34 0 0 0 48 82" stroke="url(#ll-ring-blue)" stroke-width="2.8" fill="none" stroke-linecap="round"/>
    <path d="M48 14 A34 34 0 0 1 48 82" stroke="url(#ll-ring-gold)" stroke-width="2.8" fill="none" stroke-linecap="round"/>
    <path d="M34 30 L34 66" stroke="url(#ll-blue)" stroke-width="7.5" stroke-linecap="round"/>
    <path d="M34 30 L62 66" stroke="url(#ll-blue)" stroke-width="7.5" stroke-linecap="round"/>
    <path d="M62 30 L62 66" stroke="url(#ll-gold)" stroke-width="7.5" stroke-linecap="round"/>
    <path d="M48 9.5 L49.8 13.8 L54.4 13.8 L50.8 16.6 L52.2 21 L48 18.4 L43.8 21 L45.2 16.6 L41.6 13.8 L46.2 13.8 Z" fill="url(#ll-gold)"/>
  </g>
  <text x="64" y="38" font-family="Poppins, system-ui, sans-serif" font-size="26" font-weight="700" letter-spacing="-0.3" dominant-baseline="middle">
    <tspan fill="#0B1220">Neer</tspan><tspan fill="url(#ll-cred)">Cred</tspan>
  </text>
</svg>
